# xmcd
#
# Track frame offsets: 
#        150
#        14221
#        29624
#        43980
#        57487
#        72305
#        89143
#        103594
#        122637
#        139744
#        155426
#        173009
#        188051
#        200717
#
# Disc length: 2858 seconds
#
# Revision: 0
# Processed by: cddbd v1.5.2PL0 Copyright (c) Steve Scherf et al.
# Submitted via: ExactAudioCopy v0.95b3
#
DISCID=d60b280e
DTITLE=Various Artist - Mr Music Country 2007-11
DYEAR=2007
DGENRE=Country
TTITLE0=Chris Gray - Stop And Drink It Over
TTITLE1=Rick Stancil - Lyin' Look In Your Eyes
TTITLE2=Mona McCall - Keeper Of My Heart
TTITLE3=Calvin Ray - Should've Been Singing Rock Of Ages
TTITLE4=T. Jae Christian - The Workin' Man's Way
TTITLE5=Brennen Leigh - Weather Blows In
TTITLE6=Mike Anderson - Those Unemployment Blues
TTITLE7=Ron Williams With Cathy Lee - This Time We're Going To Make It
TTITLE8=Paul Alan Coons - Hey Sweet Mama
TTITLE9=Cina Samuelson - Laugh, Love and Live
TTITLE10=Rodney Hayden - I'll Ride Again
TTITLE11=Jetsurfers - That Old Fishingboat
TTITLE12=Tim Chesney - The Revival
TTITLE13=Leighan Cortesb/ This World Is Not My Home
EXTD=
EXTT0=
EXTT1=
EXTT2=
EXTT3=
EXTT4=
EXTT5=
EXTT6=
EXTT7=
EXTT8=
EXTT9=
EXTT10=
EXTT11=
EXTT12=
EXTT13=
PLAYORDER=
